<svg width="50" height="32" viewBox="0 0 50 32" fill="none" xmlns="http://www.w3.org/2000/svg">
<path fill-rule="evenodd" clip-rule="evenodd" d="M19.8913 12.5066H7.4589L0 4.99508e-09H8.89149C9.97098 -4.32261e-05 11.032 0.28053 11.9709 0.814305C12.9099 1.34808 13.6945 2.1168 14.2483 3.04536L19.8913 12.5066Z" fill="#D2D6FF"/>
<path fill-rule="evenodd" clip-rule="evenodd" d="M35.6714 2.99533L29.8768 12.5066H7.40918L16.9193 28.2515C17.4754 29.172 18.259 29.9331 19.1945 30.4612C20.1299 30.9894 21.1855 31.2668 22.2592 31.2665H27.6972C28.7786 31.2664 29.8414 30.9846 30.7815 30.4488C31.7215 29.9131 32.5064 29.1417 33.0594 28.2104L42.3805 12.5066L49.9999 6.80606e-10H40.9979C39.9283 -1.58107e-05 38.8767 0.275459 37.9439 0.799984C37.0112 1.32451 36.2286 2.08048 35.6714 2.99533Z" fill="#7380FF"/>
</svg>
